<svg xmlns="http://www.w3.org/2000/svg" width="250" height="30" viewBox="0 0 1000 120"><path d="M0 0h1000v120H0z"/><g fill="none" stroke="#222" stroke-width="10"><path d="M-500 75s125-30 250-30S0 75 0 75s125 30 250 30 250-30 250-30 125-30 250-30 250 30 250 30 125 30 250 30 250-30 250-30"/><path d="M-500 45s125-30 250-30S0 45 0 45s125 30 250 30 250-30 250-30 125-30 250-30 250 30 250 30 125 30 250 30 250-30 250-30M-500 105s125-30 250-30S0 105 0 105s125 30 250 30 250-30 250-30 125-30 250-30 250 30 250 30 125 30 250 30 250-30 250-30"/><path d="M-500 15s125-30 250-30S0 15 0 15s125 30 250 30 250-30 250-30 125-30 250-30 250 30 250 30 125 30 250 30 250-30 250-30"/><path d="M-500-15s125-30 250-30S0-15 0-15s125 30 250 30 250-30 250-30 125-30 250-30 250 30 250 30 125 30 250 30 250-30 250-30M-500 135s125-30 250-30S0 135 0 135s125 30 250 30 250-30 250-30 125-30 250-30 250 30 250 30 125 30 250 30 250-30 250-30"/></g></svg>