<?xml version="1.0" encoding="iso-8859-1"?>
<!-- Generator: Adobe Illustrator 19.1.0, SVG Export Plug-In . SVG Version: 6.00 Build 0)  -->
<svg version="1.1" xmlns="http://www.w3.org/2000/svg" xmlns:xlink="http://www.w3.org/1999/xlink" x="0px" y="0px"
	 viewBox="0 0 2834.65 2834.65" style="enable-background:new 0 0 2834.65 2834.65;" xml:space="preserve">
<g id="Calque_3" style="display:none;">
	<rect x="-14.173" y="-32.422" style="display:inline;fill:#6B150E;" width="2862.996" height="2881.245"/>
</g>
<g id="Calque_1" style="display:none;">
	<path style="display:inline;fill:#B51733;stroke:#B51733;stroke-width:40;stroke-miterlimit:10;" d="M2156.992,1453.678
		c0,52.796-5.729,104.245-16.594,153.772c-12.606,57.493-32.14,112.394-57.675,163.777c-14.77,29.729-31.562,58.286-50.178,85.488
		l-0.206,0.297c-2.84,4.161-5.729,8.281-8.668,12.375c-76.333,106.532-181.238,191.211-303.506,242.826
		c-85.364,36.036-179.191,55.966-277.682,55.966c-65.22,0-128.393-8.735-188.421-25.106
		c-303.184-82.673-526.08-360.008-526.08-689.395c0-230.995,109.611-436.382,279.655-566.987
		c120.451-92.522,271.226-147.522,434.846-147.522c184.466,0,352.611,69.901,479.369,184.664
		C2066.27,1054.571,2156.992,1243.528,2156.992,1453.678z"/>
	<g style="display:inline;">
		<g>
			<polygon style="fill:#FFFFFF;" points="701.904,108.509 1808.701,1700.932 1025.218,2020.646 			"/>
			<path style="fill:#010202;" d="M727.88,172.166l1057.817,1521.952l-748.811,305.565L727.88,172.166 M688.048,67.424
				c-3.942,0-7.735,3.367-6.905,8.276l330.905,1957.027c0.611,3.614,3.712,6.071,7.051,6.071c0.86,0,1.736-0.163,2.59-0.511
				l801.876-327.22c4.166-1.7,5.63-6.932,2.999-10.717L693.783,70.542C692.275,68.373,690.14,67.424,688.048,67.424L688.048,67.424z
				"/>
		</g>
		<g>
			<polygon style="fill:#FFFFFF;" points="1879.388,1500.79 2147.47,1393.405 2282.875,1611.956 			"/>
			<path style="fill:#010202;" d="M2141.353,1412.013l108.621,175.32l-323.674-89.177L2141.353,1412.013 M2150.577,1376.568
				c-0.917,0-1.845,0.171-2.739,0.529l-295.051,118.188c-6.555,2.625-6.024,12.075,0.783,13.95l444.078,122.35
				c0.693,0.191,1.373,0.28,2.029,0.28c5.468,0,9.348-6.182,6.196-11.27l-149.028-240.538
				C2155.468,1377.834,2153.067,1376.568,2150.577,1376.568L2150.577,1376.568z"/>
		</g>
		<g>
			<polygon style="fill:#FFFFFF;" points="1691.931,1482.775 2133.891,1395.028 2048.047,1520.584 1867.532,1756.86 			"/>
			<path style="fill:#010202;" d="M2100.768,1416.898l-64.879,94.892l-167.276,218.949l-152.184-237.535L2100.768,1416.898
				 M2150.603,1376.568c-0.495,0-1.005,0.049-1.525,0.152l-470.905,93.494c-5.159,1.024-7.669,6.92-4.832,11.349l187.365,292.446
				c1.46,2.279,3.871,3.438,6.29,3.438c2.21,0,4.426-0.968,5.927-2.933l187.164-244.98c0.08-0.104,0.156-0.21,0.23-0.319
				l96.376-140.96C2160.168,1383.173,2156.349,1376.568,2150.603,1376.568L2150.603,1376.568z"/>
		</g>
		<g>
			<polygon style="fill:#FFFFFF;" points="1121.296,1648.89 1034.769,2032.596 284.889,2527.022 			"/>
			<path style="fill:#010202;" d="M1094.724,1698.536l-73.258,324.865l-634.883,418.604L1094.724,1698.536 M1134.73,1616.238
				c-1.839,0-3.72,0.704-5.259,2.32l-901.634,946.614c-4.915,5.16-0.478,12.54,5.286,12.54c1.332,0,2.735-0.394,4.11-1.301
				l808.359-532.984c1.591-1.049,2.714-2.674,3.133-4.533l93.275-413.63C1143.155,1620.143,1139.058,1616.238,1134.73,1616.238
				L1134.73,1616.238z"/>
		</g>
		<g>
			<polygon style="fill:#FFFFFF;" points="815.343,61.757 1855.464,1765.896 1008.92,2048.83 			"/>
			<path style="fill:#010202;" d="M836.614,125.399l996.235,1632.24l-810.826,270.996L836.614,125.399 M804.633,22
				c-3.991,0-7.923,3.187-7.444,8.107l197.73,2029.707c0.379,3.893,3.667,6.662,7.33,6.662c0.772,0,1.562-0.123,2.344-0.385
				l864.706-289.004c4.492-1.501,6.423-6.789,3.955-10.832L810.819,25.551C809.315,23.088,806.963,22,804.633,22L804.633,22z"/>
		</g>
		<g>
			<polygon style="fill:#FFFFFF;" points="199.014,2617.101 609.693,2185.993 187.392,2783.929 			"/>
			<path style="fill:#010202;" d="M479.287,2344.634l-273.204,386.828l7.519-107.928L479.287,2344.634 M675.913,2097.855
				c-1.793,0-3.647,0.707-5.242,2.381l-484.413,508.508c-1.184,1.243-1.897,2.86-2.016,4.573l-13.709,196.78
				c-0.333,4.783,3.512,7.903,7.444,7.903c2.184,0,4.395-0.963,5.931-3.138l498.121-705.288
				C685.966,2104.001,681.202,2097.855,675.913,2097.855L675.913,2097.855z"/>
		</g>
	</g>
	<path style="display:inline;fill:#FFFFFF;" d="M1994.631,1145.737c-4.752-0.391-9.673-0.828-14.316-0.025
		c-7.966,1.378-15.85,3.435-23.609,5.761c-3.581,1.073-6.936,3.197-10.101,5.287c-3.936,2.595-7.471,2.391-10.739-1.24
		c-1.194-1.325-2.36-2.681-3.588-3.973c-3.344-3.525-6.692-7.046-10.04-10.566c0.954-0.974,0.526-0.537,1.48-1.511l0.323,0.295
		c0.263,0.239,0.669,0.219,0.905-0.046c0.051-0.057,0.102-0.114,0.153-0.172c0.236-0.264,0.212-0.67-0.055-0.904
		c-5.744-5.034-11.271-10.36-17.375-14.914c-3.287-2.45-7.02-0.414-9.562,2.375c-2.511,2.757-2.165,5.973-0.085,8.957
		c4.371,6.258,8.904,12.405,13.126,18.757c2.2,3.309,3.975,6.899,5.654,9.949c0.186,0.337,0.032,0.755-0.325,0.897
		c-64.228,25.466-128.109,50.8-191.903,76.099c-0.598,0.237-1.131-0.459-0.747-0.975c0.935-1.258,1.939-2.606,2.991-3.914
		c33.548-41.712,67.18-83.361,100.633-125.145c13.284-16.586,26.349-33.353,39.186-50.287c4.096-5.4,7.592-11.377,10.545-17.488
		c4.623-9.575-0.44-17.073-11.016-16.858c-3.387,0.07-6.836,0.396-10.127,1.161c-25.169,5.849-48.569,16.27-71.512,27.86
		c-1.263,0.641-2.699,1.587-3.975,1.472c-10.452-0.939-20.883-2.076-30.957-3.121c-0.466-0.048-0.717-0.566-0.475-0.966
		c17.331-28.685,34.505-56.985,51.548-85.361c10.27-17.107,20.326-34.341,30.497-51.503c3.468-5.855,2.701-14.343-1.75-17.314
		c-9.624-6.421-20.007-9.126-31.501-6.218c-4.406,1.111-6.84,4.626-7.081,9.24c-0.18,3.415-0.632,7.061-2.013,10.126
		c-3.937,8.732-8.233,17.312-12.701,25.786c-19.717,37.424-43.855,72.107-66.777,107.537c-0.847,1.306-3.432,2.216-5.138,2.12
		c-10.705-0.592-21.378-1.686-32.076-2.31c-31.959-1.859-63.882-2.873-95.797,1.278c-23.412,3.046-39.728,17.198-54.674,33.586
		c-1.693,1.858-2.221,6.512-1.059,8.677c0.922,1.72,5.488,2.694,8.025,2.135c12.827-2.841,25.527-6.253,38.243-9.567
		c1.009-0.265,1.97-0.714,2.922-1.197c-0.251-1.181-0.221-1.043-0.472-2.225c-0.241-0.012-0.485-0.023-0.734-0.036
		c-0.734-0.035-0.848-1.079-0.136-1.258c28.636-7.201,109.63-12.61,134.516-9.302c0.759,0.101,0.729,1.205-0.033,1.271
		c-0.104,0.009-0.209,0.018-0.313,0.027c0.039,2.282,0.023,1.376,0.062,3.658c15.801,0.83,31.601,1.66,47.398,2.491
		c0.301,0.016,0.55,0.24,0.597,0.539l0.075,0.475c0.044,0.281-0.102,0.558-0.359,0.679c-6.101,2.887-12.353,5.505-18.25,8.762
		c-17.164,9.473-34.167,19.232-51.252,28.844c-21.816,12.272-43.607,24.587-65.497,36.727
		c-11.902,6.597-17.632,16.765-18.386,30.082c-0.263,4.636,0.457,9.054,5.098,11.193c4.729,2.178,8.197-0.58,11.652-3.684
		c6.713-6.033,13.348-12.254,20.661-17.489c15.316-10.958,30.831-21.674,46.66-31.871c41.812-26.933,84.719-52.036,128.997-74.715
		c8.058-4.124,16.674-7.169,25.099-10.578c0.852,1.095,0.77,0.99,1.622,2.086c-0.487,0.658-0.98,1.309-1.5,1.938
		c-36.498,43.909-72.879,87.916-109.564,131.664c-19.781,23.594-39.915,46.903-60.235,70.037
		c-9.12,10.384-11.998,21.613-7.45,34.642c1.763,5.054,3.666,10.079,5.812,14.981c11.903,27.183,29.139,51.019,47.422,74.076
		c18.709,23.595,41.016,24.595,64.343,12.373c2.104-1.099,4.406-4.691,4.104-6.763c-0.359-2.446-3.177-4.836-5.433-6.608
		c-1.684-1.331-4.346-1.339-6.259-2.469c-18.642-10.989-36.507-22.921-50.436-39.957c-10.662-13.043-19.451-27.189-26.638-42.364
		c-2.229-4.711-1.046-8.259,3.677-10.494c3.333-1.576,6.993-2.63,10.619-3.384c26.925-5.611,54.18-8.244,81.66-8.761
		c43.442-0.827,86.629,3.307,129.858,6.653c2.899,0.226,5.826,0.114,8.741,0.138c0.63,0.099,1.251,0.195,1.881,0.294
		c1.638,0.527,3.219,1.426,4.899,1.69c12.991,2.024,25.969,4.239,39.02,5.775c6.219,0.733,12.73,0.964,18.87-0.038
		c17.058-2.79,26.072-15.568,22.658-31.828c-1.047-4.992-2.92-10.169-5.745-14.362c-8.983-13.303-18.497-26.255-28.004-39.201
		c-4.797-6.526-9.978-12.769-15.324-19.533c-0.256-0.324-0.14-0.801,0.233-0.977c4.204-1.983,7.727-4.536,11.438-4.843
		c8.935-0.734,13.554-6.597,18.195-12.878c2.011-2.675,4.192-5.246,5.926-8.094c0.44-0.723-0.375-2.211-0.69-3.399
		c-0.028-0.106-0.024-0.215,0.004-0.322C1999.86,1149.359,1999.315,1146.124,1994.631,1145.737z M1953.787,1226.13
		c4.696,11.071,8.293,22.618,12.115,34.045c1.135,3.382-0.979,4.187-4.01,3.588c-10.447-2.06-20.893-4.127-31.361-6.088
		c-7.558-1.416-15.099-3.3-22.738-3.879c-29.168-2.198-58.364-3.974-87.56-5.833c-2.551-0.162-5.693-0.414-4.219,3.639
		c0.158,0.434-0.172,0.892-0.633,0.869c-7.118-0.361-13.555-0.683-20.385-1.03c-0.495-0.025-0.778-0.579-0.504-0.991
		c0.46-0.693,0.935-1.409,1.633-2.46c0.279-0.419-0.02-0.982-0.522-0.994c-11.63-0.272-22.514-0.527-33.338-0.781
		c-0.216-1.116-0.177-0.914-0.394-2.03c3.595-1.559,7.177-3.147,10.826-4.559c20.609-7.966,41.277-15.791,61.858-23.824
		c4.479-1.745,8.607-4.385,13.075-6.144c2.883-1.13,6.101-1.38,9.159-2.067c3.428-0.77,6.909-1.385,10.261-2.42
		c12.249-3.792,24.384-7.963,36.695-11.534c7.82-2.267,15.894-3.625,23.809-5.568c5.398-1.324,6.303,3.516,8.173,6.196
		c2.8,3.999,4.272,8.888,6.735,13.154C1946.107,1213.743,1950.969,1219.488,1953.787,1226.13z"/>
</g>
<g id="Calque_2">
	<path style="fill:none;stroke:#FFFFFF;stroke-width:40;stroke-miterlimit:10;" d="M2143.7,1435.538
		c0,52.851-5.735,104.354-16.611,153.932c-12.62,57.553-32.173,112.511-57.735,163.948c-14.785,29.76-31.595,58.346-50.231,85.577
		l-0.207,0.297c-2.843,4.165-5.735,8.289-8.677,12.388c-76.412,106.643-181.427,191.41-303.822,243.079
		c-85.453,36.074-179.377,56.024-277.971,56.024c-65.288,0-128.527-8.744-188.617-25.132
		c-303.5-82.759-526.628-360.383-526.628-690.114c0-231.236,109.726-436.836,279.946-567.578
		c120.577-92.618,271.508-147.675,435.299-147.675c184.658,0,352.978,69.974,479.869,184.857
		C2052.884,1036.015,2143.7,1225.169,2143.7,1435.538z"/>
	<g>
		<g>
			<polygon style="fill:#FFFFFF;" points="1126.897,1646.401 1040.267,2030.568 289.485,2525.589 			"/>
			<path style="fill:#FFFFFF;" d="M1100.325,1696.048l-73.362,325.325l-635.785,419.199L1100.325,1696.048 M1140.318,1613.768
				c-1.841,0-3.724,0.705-5.264,2.322l-902.573,947.6c-4.92,5.166-0.478,12.552,5.292,12.552c1.334,0,2.737-0.394,4.114-1.302
				l809.201-533.539c1.593-1.05,2.717-2.677,3.137-4.538l93.372-414.061C1148.752,1617.676,1144.651,1613.768,1140.318,1613.768
				L1140.318,1613.768z"/>
		</g>
		<g>
			<g>
				<polygon style="fill:#FFFFFF;" points="707.014,104.401 1815.015,1698.557 1030.679,2018.618 				"/>
				<path style="fill:#FFFFFF;" d="M732.99,168.058l1059.021,1523.685l-749.663,305.914L732.99,168.058 M693.17,63.34
					c-3.947,0-7.743,3.37-6.912,8.285l331.249,1959.066c0.612,3.618,3.716,6.077,7.058,6.077c0.861,0,1.738-0.163,2.592-0.512
					l802.711-327.561c4.17-1.702,5.636-6.939,3.002-10.728L698.911,66.462C697.402,64.29,695.265,63.34,693.17,63.34L693.17,63.34z"
					/>
			</g>
			<g>
				<polygon style="fill:#FFFFFF;" points="1885.702,1498.202 2154.118,1390.683 2289.695,1609.508 				"/>
				<path style="fill:#FFFFFF;" d="M2148.002,1409.291l108.791,175.593l-324.178-89.315L2148.002,1409.291 M2157.223,1373.848
					c-0.917,0-1.846,0.172-2.741,0.53l-295.358,118.311c-6.562,2.628-6.03,12.088,0.784,13.965l444.541,122.477
					c0.693,0.191,1.374,0.28,2.031,0.28c5.474,0,9.358-6.188,6.202-11.282l-149.183-240.788
					C2162.119,1375.115,2159.716,1373.848,2157.223,1373.848L2157.223,1373.848z"/>
			</g>
			<g>
				<polygon style="fill:#FFFFFF;" points="1698.074,1480.155 2140.555,1392.305 2054.593,1518.031 1873.884,1754.563 				"/>
				<path style="fill:#FFFFFF;" d="M2107.431,1414.174l-64.994,95.059l-167.475,219.21l-152.392-237.859L2107.431,1414.174
					 M2157.249,1373.848c-0.496,0-1.006,0.049-1.527,0.153l-471.396,93.591c-5.164,1.025-7.677,6.927-4.837,11.36l187.56,292.751
					c1.462,2.281,3.875,3.441,6.296,3.441c2.212,0,4.431-0.969,5.933-2.936l187.359-245.235c0.08-0.104,0.156-0.211,0.23-0.319
					l96.477-141.107C2166.824,1380.46,2163.001,1373.848,2157.249,1373.848L2157.249,1373.848z"/>
			</g>
			<g>
				<polygon style="fill:#FFFFFF;" points="820.576,57.6 1861.825,1763.591 1014.364,2046.831 				"/>
				<path style="fill:#FFFFFF;" d="M841.847,121.243l997.365,1634.09l-811.745,271.303L841.847,121.243 M809.877,17.868
					c-3.995,0-7.931,3.19-7.451,8.115l197.937,2031.822c0.38,3.897,3.67,6.668,7.338,6.668c0.773,0,1.563-0.123,2.346-0.385
					l865.607-289.305c4.497-1.503,6.43-6.796,3.96-10.844L816.069,21.424C814.564,18.957,812.21,17.868,809.877,17.868
					L809.877,17.868z"/>
			</g>
			<g>
				<polygon style="fill:#FFFFFF;" points="203.612,2615.666 614.868,2183.954 191.973,2782.729 				"/>
				<path style="fill:#FFFFFF;" d="M484.464,2342.592l-273.799,387.671L218.2,2622.1L484.464,2342.592 M681.022,2095.886
					c-1.795,0-3.651,0.707-5.248,2.384l-484.917,509.037c-1.185,1.244-1.899,2.863-2.019,4.577l-13.723,196.985
					c-0.334,4.788,3.516,7.911,7.452,7.911c2.186,0,4.4-0.964,5.938-3.141l498.64-706.022
					C691.086,2102.039,686.317,2095.886,681.022,2095.886L681.022,2095.886z"/>
			</g>
		</g>
	</g>
	<path style="fill:#FFFFFF;" d="M2010.111,1150.722c-4.757-0.392-9.683-0.829-14.331-0.025c-7.974,1.38-15.866,3.439-23.634,5.767
		c-3.585,1.074-6.943,3.2-10.112,5.293c-3.94,2.598-7.478,2.393-10.75-1.241c-1.195-1.327-2.363-2.683-3.591-3.977
		c-3.348-3.528-6.698-7.053-10.05-10.577c0.955-0.975,0.527-0.537,1.482-1.512l0.324,0.295c0.263,0.24,0.669,0.219,0.906-0.046
		c0.051-0.057,0.102-0.115,0.154-0.172c0.236-0.265,0.212-0.671-0.055-0.904c-5.75-5.039-11.282-10.371-17.393-14.93
		c-3.291-2.453-7.027-0.414-9.571,2.378c-2.514,2.76-2.167,5.979-0.085,8.966c4.376,6.264,8.913,12.418,13.139,18.776
		c2.202,3.313,3.979,6.906,5.66,9.959c0.186,0.338,0.033,0.756-0.326,0.898c-64.295,25.493-128.243,50.853-192.103,76.178
		c-0.599,0.237-1.132-0.459-0.748-0.976c0.935-1.259,1.941-2.609,2.994-3.918c33.583-41.755,67.25-83.448,100.738-125.275
		c13.298-16.603,26.377-33.388,39.226-50.339c4.1-5.406,7.6-11.388,10.556-17.506c4.627-9.585-0.44-17.091-11.027-16.876
		c-3.391,0.07-6.844,0.397-10.138,1.162c-25.196,5.855-48.62,16.287-71.587,27.889c-1.264,0.641-2.701,1.588-3.979,1.474
		c-10.463-0.94-20.905-2.078-30.989-3.124c-0.466-0.048-0.718-0.566-0.475-0.967c17.349-28.715,34.541-57.044,51.602-85.45
		c10.281-17.125,20.347-34.376,30.529-51.557c3.472-5.861,2.703-14.358-1.751-17.332c-9.634-6.428-20.028-9.136-31.534-6.224
		c-4.411,1.112-6.847,4.631-7.089,9.25c-0.18,3.419-0.633,7.068-2.015,10.136c-3.941,8.741-8.242,17.33-12.714,25.812
		c-19.737,37.463-43.901,72.182-66.847,107.649c-0.848,1.308-3.436,2.218-5.144,2.122c-10.717-0.593-21.4-1.687-32.11-2.312
		c-31.992-1.861-63.948-2.876-95.897,1.279c-23.437,3.049-39.77,17.216-54.731,33.621c-1.694,1.86-2.223,6.519-1.06,8.686
		c0.922,1.722,5.493,2.697,8.033,2.137c12.84-2.844,25.554-6.259,38.283-9.577c1.01-0.266,1.973-0.715,2.926-1.198
		c-0.251-1.182-0.222-1.045-0.472-2.227c-0.241-0.012-0.486-0.023-0.734-0.036c-0.735-0.036-0.849-1.08-0.136-1.259
		c28.666-7.209,109.744-12.624,134.656-9.312c0.759,0.101,0.73,1.207-0.033,1.272c-0.104,0.009-0.209,0.018-0.313,0.027
		c0.039,2.284,0.023,1.378,0.062,3.662c15.817,0.831,31.634,1.661,47.447,2.494c0.302,0.016,0.551,0.241,0.598,0.539l0.075,0.476
		c0.044,0.281-0.102,0.558-0.359,0.68c-6.107,2.89-12.366,5.51-18.27,8.771c-17.182,9.482-34.202,19.252-51.305,28.874
		c-21.839,12.284-43.653,24.613-65.566,36.765c-11.915,6.604-17.65,16.782-18.405,30.114c-0.264,4.641,0.457,9.063,5.103,11.205
		c4.734,2.18,8.205-0.58,11.664-3.688c6.72-6.039,13.361-12.266,20.683-17.507c15.332-10.969,30.863-21.697,46.709-31.904
		c41.856-26.961,84.808-52.09,129.131-74.793c8.067-4.128,16.692-7.176,25.126-10.589c0.853,1.097,0.771,0.991,1.624,2.088
		c-0.487,0.658-0.981,1.311-1.502,1.94c-36.536,43.955-72.955,88.008-109.678,131.801c-19.801,23.619-39.956,46.952-60.297,70.11
		c-9.13,10.395-12.01,21.636-7.458,34.678c1.765,5.06,3.67,10.089,5.818,14.997c11.915,27.211,29.17,51.072,47.471,74.153
		c18.729,23.619,41.058,24.62,64.41,12.386c2.106-1.1,4.411-4.696,4.109-6.77c-0.359-2.449-3.18-4.841-5.439-6.615
		c-1.686-1.332-4.351-1.34-6.266-2.471c-18.662-11-36.546-22.945-50.488-39.998c-10.673-13.056-19.471-27.217-26.666-42.408
		c-2.231-4.716-1.047-8.268,3.68-10.505c3.337-1.577,7.001-2.633,10.63-3.388c26.953-5.617,54.236-8.253,81.745-8.77
		c43.488-0.828,86.719,3.31,129.993,6.66c2.902,0.227,5.832,0.114,8.75,0.138c0.631,0.099,1.252,0.196,1.884,0.294
		c1.64,0.528,3.222,1.428,4.904,1.692c13.005,2.026,25.996,4.244,39.061,5.781c6.226,0.734,12.743,0.964,18.889-0.038
		c17.076-2.793,26.099-15.584,22.682-31.861c-1.048-4.998-2.923-10.18-5.751-14.377c-8.992-13.317-18.517-26.282-28.033-39.242
		c-4.802-6.533-9.988-12.782-15.34-19.554c-0.256-0.324-0.14-0.802,0.234-0.978c4.208-1.985,7.735-4.541,11.45-4.848
		c8.945-0.735,13.568-6.604,18.214-12.891c2.013-2.677,4.196-5.252,5.933-8.103c0.441-0.724-0.376-2.213-0.691-3.402
		c-0.028-0.106-0.024-0.216,0.004-0.322C2015.345,1154.348,2014.8,1151.109,2010.111,1150.722z M1969.224,1231.198
		c4.701,11.082,8.301,22.642,12.127,34.08c1.136,3.386-0.98,4.192-4.014,3.592c-10.458-2.062-20.915-4.131-31.394-6.094
		c-7.567-1.417-15.115-3.304-22.762-3.883c-29.198-2.201-58.425-3.978-87.651-5.839c-2.553-0.162-5.699-0.415-4.223,3.643
		c0.158,0.434-0.172,0.893-0.634,0.869c-7.125-0.362-13.569-0.684-20.406-1.031c-0.495-0.025-0.779-0.579-0.505-0.992
		c0.461-0.694,0.936-1.41,1.635-2.462c0.279-0.419-0.02-0.983-0.523-0.995c-11.642-0.272-22.538-0.528-33.373-0.781
		c-0.217-1.117-0.178-0.915-0.394-2.032c3.599-1.56,7.184-3.151,10.838-4.563c20.63-7.974,41.32-15.808,61.922-23.849
		c4.484-1.747,8.616-4.39,13.089-6.151c2.886-1.131,6.107-1.381,9.169-2.069c3.432-0.771,6.916-1.386,10.272-2.423
		c12.262-3.796,24.409-7.971,36.733-11.546c7.828-2.27,15.911-3.628,23.834-5.574c5.403-1.325,6.309,3.52,8.182,6.203
		c2.802,4.003,4.277,8.898,6.742,13.168C1961.536,1218.798,1966.403,1224.55,1969.224,1231.198z"/>
	<g>
	</g>
	<g>
	</g>
	<g>
	</g>
	<g>
	</g>
	<g>
	</g>
	<g>
	</g>
</g>
</svg>
