<?xml version="1.0" encoding="utf-8"?>
<!-- Generator: Adobe Illustrator 19.1.0, SVG Export Plug-In . SVG Version: 6.00 Build 0)  -->
<svg version="1.1"
	 id="Calque_1" xmlns:svg="http://www.w3.org/2000/svg" xmlns:rdf="http://www.w3.org/1999/02/22-rdf-syntax-ns#" xmlns:dc="http://purl.org/dc/elements/1.1/" xmlns:cc="http://creativecommons.org/ns#"
	 xmlns="http://www.w3.org/2000/svg" xmlns:xlink="http://www.w3.org/1999/xlink" x="0px" y="0px" viewBox="-1322.3 1369.1 76 76"
	 style="enable-background:new -1322.3 1369.1 76 76;" xml:space="preserve">
<style type="text/css">
	.st0{fill:#DE572B;}
	.st1{fill:#FFFFFF;}
</style>
<path class="st0" d="M-1246.3,1407.1c0,21-17,38-38,38s-38-17-38-38s17-38,38-38S-1246.3,1386.1-1246.3,1407.1"/>
<path class="st1" d="M-1284.4,1383.7c-5.8-0.1-11.5,1-13.6,3.2c-0.3,0.3-2.2,0.9-2.7,0.9c-0.3,0-0.6-0.1-0.9-0.2
	c-1.3-0.3-3.2-0.7-4.6,1.1c-1.3,1.6-0.9,3.2-0.5,4.6c0.3,1.2,0.6,2.2,0,3.3c-1.6,2.6-1.6,9.7-1.6,10v30.7c0,0.4,0.3,0.8,0.8,0.8
	c0.4,0,0.8-0.3,0.8-0.8v-30.7c0-1.9,0.2-7.3,1.4-9.2c0.9-1.6,0.5-3.1,0.2-4.4c-0.4-1.4-0.6-2.4,0.2-3.3c0.8-1,1.7-0.8,3.1-0.6
	c0.3,0.1,0.7,0.1,1,0.2c1,0.1,3.3-0.6,4-1.3c3.3-3.5,20.9-3.8,25.6,0.5c1.7,1.6,3.2,1.1,4.3,0.7c1.1-0.4,2-0.7,3.3,0.4
	c0.4,0.3,1.5,1.2,0.5,3.7c-0.7,1.8-0.8,3.7-0.1,5.5c0.7,2,1.1,4.1,1.1,6.3v32.3c0,0.4,0.3,0.8,0.8,0.8h0c0.4,0,0.8-0.3,0.8-0.8V1405
	c0-2.4-0.4-4.7-1.2-6.8c-0.5-1.4-0.5-3,0.1-4.4c1-2.3,0.6-4.2-0.9-5.4c-2-1.6-3.5-1.1-4.7-0.6c-1.1,0.4-1.8,0.6-2.8-0.3
	C-1272.7,1385-1278.6,1383.8-1284.4,1383.7L-1284.4,1383.7z M-1302.4,1391.1c-0.8,0-1.5,0.6-1.5,1.4s0.6,1.5,1.5,1.5
	s1.4-0.6,1.4-1.5S-1301.6,1391.1-1302.4,1391.1z M-1266.3,1391.1c-0.8,0-1.5,0.6-1.5,1.4s0.7,1.5,1.5,1.5c0.8,0,1.5-0.6,1.5-1.5
	S-1265.5,1391.1-1266.3,1391.1z M-1302.4,1391.7c0.5,0,0.8,0.4,0.8,0.8s-0.4,0.8-0.8,0.8s-0.8-0.4-0.8-0.8
	S-1302.9,1391.7-1302.4,1391.7z M-1266.3,1391.7c0.5,0,0.8,0.4,0.8,0.8s-0.4,0.8-0.8,0.8c-0.5,0-0.8-0.4-0.8-0.8
	S-1266.7,1391.7-1266.3,1391.7z M-1294.2,1395c-1.5,0-2.7,1.2-2.7,2.7c0,1.5,1.2,2.7,2.7,2.7c1.5,0,2.7-1.2,2.7-2.7
	C-1291.6,1396.2-1292.8,1395-1294.2,1395z M-1274.1,1395c-1.5,0-2.7,1.2-2.7,2.7c0,1.5,1.2,2.7,2.7,2.7s2.7-1.2,2.7-2.7
	C-1271.4,1396.2-1272.6,1395-1274.1,1395z M-1294.2,1395.5c1.2,0,2.1,1,2.1,2.1c0,0.5-0.2,1-0.5,1.3c0-0.1,0-0.2,0-0.3
	c0-0.8-0.6-1.4-1.4-1.4s-1.4,0.6-1.4,1.4c0,0.4,0.1,0.7,0.4,0.9c-0.8-0.3-1.4-1.1-1.4-2C-1296.4,1396.4-1295.4,1395.5-1294.2,1395.5
	L-1294.2,1395.5z M-1274.1,1395.5c1.2,0,2.1,1,2.1,2.1c0,0.9-0.6,1.7-1.3,2c0.2-0.3,0.4-0.6,0.4-0.9c0-0.8-0.6-1.4-1.4-1.4
	c-0.8,0-1.4,0.6-1.4,1.4c0,0.1,0,0.2,0,0.3c-0.3-0.4-0.5-0.8-0.5-1.4C-1276.2,1396.4-1275.3,1395.5-1274.1,1395.5L-1274.1,1395.5z
	 M-1294,1397.8c0.5,0,0.9,0.4,0.9,0.9s-0.4,0.9-0.9,0.9s-0.9-0.4-0.9-0.9S-1294.4,1397.8-1294,1397.8z M-1274.4,1397.8
	c0.5,0,0.9,0.4,0.9,0.9s-0.4,0.9-0.9,0.9c-0.5,0-0.9-0.4-0.9-0.9S-1274.8,1397.8-1274.4,1397.8z M-1284.1,1399
	c-3.5,0-6.3,1.7-6.3,3.8c0,2,2.5,3.6,5.9,3.8v4c-1,0.1-2.1,0.3-3.2,0.5c-1.9,0.3-3.8,0.6-5.3,0.6c1.3-1.5,2.3-2.2,2.3-2.2
	c0.1-0.1,0.2-0.2,0.1-0.4c-0.1-0.1-0.2-0.1-0.3-0.1c0,0-0.1,0-0.1,0c-0.1,0-1.3,0.9-2.7,2.7c-1.3-0.1-2.2-0.6-2.6-1.6
	c-0.1-0.2-0.1-0.4-0.2-0.6c1.5-1.3,2.8-1.8,2.8-1.8c0.1-0.1,0.2-0.2,0.1-0.3c0-0.1-0.1-0.2-0.2-0.2c0,0-0.1,0-0.1,0
	c0,0-1.2,0.5-2.7,1.7c-0.1-1,0-2,0.2-3c1.4-0.6,2.4-0.8,2.4-0.8c0.1,0,0.2-0.2,0.2-0.3c0-0.1-0.2-0.2-0.3-0.2c0,0-0.9,0.2-2.2,0.7
	c0.4-1.7,0.9-3.1,1-3.2c0.1-0.2,0-0.4-0.2-0.5c-0.2-0.1-0.4,0-0.5,0.2c0,0.1-0.7,1.8-1.1,3.8c-2.5,1.2-6.1,3.4-8.5,7.6
	c-0.1,0.1,0,0.3,0.1,0.4c0,0,0.1,0,0.1,0c0.1,0,0.2,0,0.2-0.1c2.3-3.9,5.5-6,8-7.2c-0.2,1.1-0.2,2.2,0,3.2
	c-2.3,2.1-5.2,5.9-6.3,12.2c0,0.1,0.1,0.3,0.2,0.3c0,0,0,0,0,0v0c0.1,0,0.2-0.1,0.3-0.2c1-5.7,3.4-9.3,5.3-11.2
	c0.2-0.2,0.3-0.3,0.5-0.5c0,0.1,0.1,0.2,0.1,0.3c0.4,1.2,1.4,1.8,2.7,2c-0.2,0.3-0.5,0.6-0.7,1c-1.8,2.7-3.8,7.5-3.6,14.4
	c0,0.1,0.1,0.3,0.3,0.3h0c0.1,0,0.3-0.1,0.3-0.3c-0.2-7.6,2.3-12.5,4.4-15.3c1.7,0.1,3.9-0.3,6-0.6c1.1-0.2,2.3-0.4,3.3-0.5
	c0.6,0.2,3.6,1.4,6.7,1.4v0c0.9,0,1.8-0.1,2.6-0.4c2.2,2.8,4.7,7.8,4.5,15.4c0,0.1,0.1,0.3,0.3,0.3h0h0c0.1,0,0.3-0.1,0.3-0.3
	c0.2-7.6-2.3-12.7-4.5-15.6c0,0,0.1,0,0.1,0c1.1-0.5,2-1.3,2.5-2.4c0.3,0.2,0.5,0.5,0.8,0.8c1.9,2,4.4,5.7,5.5,11.8
	c0,0.1,0.1,0.2,0.3,0.2c0,0,0,0,0.1,0c0.1,0,0.2-0.2,0.2-0.3c-1.2-6.2-3.8-10-5.7-12.1c-0.3-0.3-0.6-0.6-0.9-0.9
	c0.1-0.2,0.2-0.5,0.2-0.7c0.2-0.7,0.2-1.6,0.2-2.4c2.3,1.1,5.3,3.2,7.8,7.2c0.1,0.1,0.1,0.1,0.2,0.1c0,0,0.1,0,0.1,0
	c0.1-0.1,0.2-0.2,0.1-0.4c-2.8-4.3-6-6.5-8.3-7.6c-0.2-1.6-0.8-3.2-1.8-4.3c-0.1-0.1-0.2-0.1-0.3-0.1s-0.2,0-0.3,0.1
	c-0.2,0.1-0.2,0.4,0,0.5c0.8,0.9,1.3,2.2,1.5,3.5c-1.4-0.6-2.4-0.7-2.5-0.7c-0.1,0-0.3,0.1-0.3,0.2c0,0.1,0.1,0.3,0.2,0.3
	c0,0,1.1,0.2,2.6,0.8c0.1,0.9,0.1,1.8-0.1,2.6c0,0.1-0.1,0.2-0.1,0.3c-1.4-1.1-2.4-1.6-2.4-1.6c0,0-0.1,0-0.1,0
	c-0.1,0-0.2,0.1-0.2,0.2c-0.1,0.1,0,0.3,0.1,0.3c0,0,1.1,0.4,2.4,1.6c-0.4,0.8-1,1.7-2.2,2.2c-0.1,0-0.2,0.1-0.3,0.1
	c-1.4-1.7-2.6-2.5-2.6-2.5c-0.1,0-0.1-0.1-0.2,0c-0.1,0-0.1,0.1-0.2,0.1c-0.1,0.1,0,0.3,0.1,0.4c0,0,1.1,0.7,2.3,2.3
	c-3.4,0.9-7.8-0.8-8.4-1.1v-4c3.4-0.1,6-1.7,6-3.8C-1277.8,1400.7-1280.6,1399-1284.1,1399L-1284.1,1399z M-1284.1,1399.8
	c3,0,5.6,1.4,5.6,3c0,1.6-2.6,3-5.6,3c-3,0-5.6-1.4-5.6-3C-1289.7,1401.2-1287.1,1399.8-1284.1,1399.8z M-1284.3,1400.2
	c-1.8,0-3.2,0.7-3.2,1.6s1.4,1.6,3.2,1.6c1.8,0,3.2-0.7,3.2-1.6S-1282.5,1400.2-1284.3,1400.2z M-1284.3,1400.5
	c1.7,0,2.8,0.6,2.8,1.2s-1.1,1.2-2.8,1.2c-1.7,0-2.8-0.6-2.8-1.2S-1286,1400.5-1284.3,1400.5z M-1280.8,1413.7c-0.1,0-0.2,0-0.3,0.1
	c-1,1.1-2.1,1.7-3.2,1.6c-1.6-0.1-2.8-1.6-2.8-1.6c-0.1-0.2-0.4-0.2-0.5-0.1c-0.2,0.1-0.2,0.4-0.1,0.5c0.1,0.1,1.3,1.8,3.3,1.9
	c0.1,0,0.1,0,0.2,0c1.2,0,2.4-0.6,3.6-1.9c0.1-0.2,0.1-0.4,0-0.5C-1280.6,1413.7-1280.7,1413.7-1280.8,1413.7L-1280.8,1413.7z"/>
</svg>
