<svg xmlns="http://www.w3.org/2000/svg" width="117" height="156" viewBox="0 0 117 156"><defs><style>.a{fill:#3d3333;}</style></defs><path class="a" d="M130.438,217.438A2.435,2.435,0,0,1,128,215V178.438a2.438,2.438,0,0,1,4.875,0V215A2.435,2.435,0,0,1,130.438,217.438Zm0,0" transform="translate(-89 -122.375)"/><path class="a" d="M242.438,217.453A2.435,2.435,0,0,1,240,215.016V178.461a2.438,2.438,0,0,1,4.875,0v36.555A2.435,2.435,0,0,1,242.438,217.453Zm0,0" transform="translate(-166.875 -122.391)"/><path class="a" d="M151.313,313.75A7.322,7.322,0,0,1,144,306.438a2.438,2.438,0,0,1,4.875,0,2.439,2.439,0,0,0,2.438,2.438,2.438,2.438,0,1,1,0,4.875Zm0,0" transform="translate(-100.125 -211.375)"/><path class="a" d="M210.438,313.755a2.438,2.438,0,1,1,0-4.875,2.439,2.439,0,0,0,2.438-2.435,2.438,2.438,0,0,1,4.875,0A7.322,7.322,0,0,1,210.438,313.755Zm0,0" transform="translate(-144.625 -211.38)"/><path class="a" d="M177.063,324.875H162.438a2.438,2.438,0,1,1,0-4.875h14.625a2.438,2.438,0,1,1,0,4.875Zm0,0" transform="translate(-111.25 -222.5)"/><path class="a" d="M257.063,227.5a2.435,2.435,0,0,1-2.437-2.437,12.2,12.2,0,0,0-12.188-12.187,2.438,2.438,0,0,1,0-4.875A17.086,17.086,0,0,1,259.5,225.063,2.435,2.435,0,0,1,257.063,227.5Zm0,0" transform="translate(-166.875 -144.625)"/><path class="a" d="M257.063,284.875H242.438a2.438,2.438,0,0,1,0-4.875h14.625a2.438,2.438,0,1,1,0,4.875Zm0,0" transform="translate(-166.875 -194.688)"/><path class="a" d="M82.438,227.505A2.435,2.435,0,0,1,80,225.068a17.083,17.083,0,0,1,17.063-17.06,2.437,2.437,0,1,1,0,4.875,12.2,12.2,0,0,0-12.188,12.185A2.435,2.435,0,0,1,82.438,227.505Zm0,0" transform="translate(-55.625 -144.63)"/><path class="a" d="M97.063,284.875H82.438a2.438,2.438,0,1,1,0-4.875H97.063a2.438,2.438,0,1,1,0,4.875Zm0,0" transform="translate(-55.625 -194.688)"/><path class="a" d="M82.438,268.188A2.435,2.435,0,0,1,80,265.75v-7.312a2.438,2.438,0,0,1,4.875,0v7.313A2.435,2.435,0,0,1,82.438,268.188Zm0,0" transform="translate(-55.625 -178)"/><path class="a" d="M290.438,268.188A2.435,2.435,0,0,1,288,265.75v-7.312a2.438,2.438,0,0,1,4.875,0v7.313A2.435,2.435,0,0,1,290.438,268.188Zm0,0" transform="translate(-200.25 -178)"/><path class="a" d="M164.563,300.875H130.438a2.438,2.438,0,1,1,0-4.875h34.125a2.438,2.438,0,1,1,0,4.875Zm0,0" transform="translate(-89 -205.813)"/><path class="a" d="M226.438,303.315A2.435,2.435,0,0,1,224,300.878v-2.44a2.438,2.438,0,0,1,4.875,0v2.44A2.435,2.435,0,0,1,226.438,303.315Zm0,0" transform="translate(-155.75 -205.813)"/><path class="a" d="M146.583,303.32a2.435,2.435,0,0,1-2.438-2.437v-2.437a2.438,2.438,0,0,1,4.875,0v2.438A2.437,2.437,0,0,1,146.583,303.32Zm0,0" transform="translate(-100.226 -205.818)"/><path class="a" d="M210.438,347.72A2.435,2.435,0,0,1,208,345.282V322.438a2.438,2.438,0,0,1,4.875,0v22.844A2.435,2.435,0,0,1,210.438,347.72Zm0,0" transform="translate(-144.625 -222.5)"/><path class="a" d="M162.438,347.72A2.435,2.435,0,0,1,160,345.282V322.438a2.438,2.438,0,0,1,4.875,0v22.844A2.435,2.435,0,0,1,162.438,347.72Zm0,0" transform="translate(-111.25 -222.5)"/><path class="a" d="M186.438,334.625A2.435,2.435,0,0,1,184,332.188v-9.75a2.438,2.438,0,0,1,4.875,0v9.75A2.435,2.435,0,0,1,186.438,334.625Zm0,0" transform="translate(-127.937 -222.5)"/><path class="a" d="M250.438,446.625A2.435,2.435,0,0,1,248,444.188,12.2,12.2,0,0,1,260.188,432a2.438,2.438,0,0,1,0,4.875,7.322,7.322,0,0,0-7.313,7.313A2.435,2.435,0,0,1,250.438,446.625Zm0,0" transform="translate(-172.437 -300.375)"/><path class="a" d="M259.189,420.888a2.435,2.435,0,0,1-2.437-2.437,7.28,7.28,0,0,0-13.7-3.463,2.536,2.536,0,0,1-4.285,0A7.315,7.315,0,0,0,228.65,412.2a2.438,2.438,0,0,1-3.676-1.833,7.27,7.27,0,0,0-7.222-6.54,7.154,7.154,0,0,0-3.727,1.063,2.438,2.438,0,0,1-3.676-1.833,7.276,7.276,0,0,0-1.752-4.037,2.438,2.438,0,0,1,3.685-3.193,12.2,12.2,0,0,1,2.167,3.6,11.71,11.71,0,0,1,3.3-.477,12.117,12.117,0,0,1,11.322,7.785,12.184,12.184,0,0,1,11.834,3.065,12.149,12.149,0,0,1,20.719,8.65A2.435,2.435,0,0,1,259.189,420.888Zm0,0" transform="translate(-144.626 -274.638)"/><path class="a" d="M138.438,432.375a2.438,2.438,0,0,1,0-4.875,7.313,7.313,0,1,0,0-14.625,2.438,2.438,0,0,1,0-4.875,12.188,12.188,0,1,1,0,24.375Zm0,0" transform="translate(-94.562 -283.688)"/><path class="a" d="M2.438,420.877A2.435,2.435,0,0,1,0,418.439a12.149,12.149,0,0,1,20.719-8.65,12.194,12.194,0,0,1,11.834-3.065,12.117,12.117,0,0,1,11.322-7.785,11.879,11.879,0,0,1,3.3.473,12.26,12.26,0,0,1,2.167-3.6A2.438,2.438,0,0,1,53.03,399a7.31,7.31,0,0,0-1.752,4.037,2.438,2.438,0,0,1-3.676,1.833,7.193,7.193,0,0,0-3.726-1.058,7.27,7.27,0,0,0-7.222,6.542,2.438,2.438,0,0,1-3.676,1.833,7.312,7.312,0,0,0-10.115,2.789,2.536,2.536,0,0,1-4.285,0,7.28,7.28,0,0,0-13.7,3.461,2.435,2.435,0,0,1-2.438,2.438Zm0,0" transform="translate(0 -274.627)"/><path class="a" d="M127.063,500.875H34.438a2.438,2.438,0,1,1,0-4.875h92.625a2.438,2.438,0,1,1,0,4.875Zm0,0" transform="translate(-22.25 -344.875)"/><path class="a" d="M12.188,478.625A12.2,12.2,0,0,1,0,466.438a2.438,2.438,0,0,1,4.875,0,7.322,7.322,0,0,0,7.313,7.313,2.438,2.438,0,1,1,0,4.875Zm0,0" transform="translate(0 -322.625)"/><path class="a" d="M338.438,478.625a2.438,2.438,0,0,1,0-4.875,7.322,7.322,0,0,0,7.313-7.312,2.437,2.437,0,0,1,4.875,0A12.2,12.2,0,0,1,338.438,478.625Zm0,0" transform="translate(-233.625 -322.625)"/><path class="a" d="M145.813,180.9H82.438a2.438,2.438,0,1,1,0-4.875h63.375a2.438,2.438,0,1,1,0,4.875Zm0,0" transform="translate(-55.625 -122.391)"/><path class="a" d="M82.438,64.07A2.435,2.435,0,0,1,80,61.632V10.438a2.438,2.438,0,0,1,4.875,0V61.632A2.435,2.435,0,0,1,82.438,64.07Zm0,0" transform="translate(-55.625 -5.563)"/><path class="a" d="M290.438,64.07A2.435,2.435,0,0,1,288,61.632V10.438a2.438,2.438,0,0,1,4.875,0V61.632A2.435,2.435,0,0,1,290.438,64.07Zm0,0" transform="translate(-200.25 -5.563)"/><path class="a" d="M82.438,7.313A2.435,2.435,0,0,1,80,4.875,4.88,4.88,0,0,1,84.875,0a2.438,2.438,0,1,1,0,4.875A2.435,2.435,0,0,1,82.438,7.313Zm0,0" transform="translate(-55.625 0)"/><path class="a" d="M284.875,7.312a2.435,2.435,0,0,1-2.437-2.438v0a2.435,2.435,0,1,1,0-4.87,4.88,4.88,0,0,1,4.875,4.875,2.435,2.435,0,0,1-2.438,2.438Zm0,0" transform="translate(-194.687)"/><path class="a" d="M148.938,4.875h-58.5a2.438,2.438,0,1,1,0-4.875h58.5a2.438,2.438,0,1,1,0,4.875Zm0,0" transform="translate(-61.187 0)"/><path class="a" d="M145.813,28.875H82.438a2.438,2.438,0,1,1,0-4.875h63.375a2.438,2.438,0,1,1,0,4.875Zm0,0" transform="translate(-55.625 -16.688)"/><path class="a" d="M158.313,68.188H114.438A2.435,2.435,0,0,1,112,65.75V58.438A2.435,2.435,0,0,1,114.438,56h43.875a2.435,2.435,0,0,1,2.438,2.438V65.75A2.435,2.435,0,0,1,158.313,68.188Zm-41.438-4.875h39V60.875h-39Zm0,0" transform="translate(-77.875 -38.938)"/><path class="a" d="M164.563,116.875H130.438a2.438,2.438,0,1,1,0-4.875h34.125a2.438,2.438,0,1,1,0,4.875Zm0,0" transform="translate(-89 -77.875)"/><path class="a" d="M173.938,148.875h-19.5a2.438,2.438,0,1,1,0-4.875h19.5a2.438,2.438,0,0,1,0,4.875Zm0,0" transform="translate(-105.687 -100.125)"/></svg>