<svg xmlns="http://www.w3.org/2000/svg" width="161.031" height="156" viewBox="0 0 161.031 156"><defs><style>.a{fill:#3d3333;}</style></defs><g transform="translate(0 -0.001)"><path class="a" d="M62.9,445.036H2.516a2.516,2.516,0,1,1,0-5.032H62.9a2.516,2.516,0,1,1,0,5.032Zm0,0" transform="translate(0 -301.616)"/><path class="a" d="M62.9,477.036H2.516a2.516,2.516,0,0,1,0-5.032H62.9a2.516,2.516,0,1,1,0,5.032Zm0,0" transform="translate(0 -323.551)"/><path class="a" d="M366.9,445.036H306.516a2.516,2.516,0,1,1,0-5.032H366.9a2.516,2.516,0,1,1,0,5.032Zm0,0" transform="translate(-208.388 -301.616)"/><path class="a" d="M366.9,477.036H306.516a2.516,2.516,0,0,1,0-5.032H366.9a2.516,2.516,0,0,1,0,5.032Zm0,0" transform="translate(-208.388 -323.551)"/><path class="a" d="M194.516,452.133A2.514,2.514,0,0,1,192,449.617v-15.1a2.516,2.516,0,1,1,5.032,0v15.1A2.514,2.514,0,0,1,194.516,452.133Zm0,0" transform="translate(-131.613 -296.132)"/><path class="a" d="M306.516,452.133A2.514,2.514,0,0,1,304,449.617v-15.1a2.516,2.516,0,1,1,5.032,0v15.1A2.514,2.514,0,0,1,306.516,452.133Zm0,0" transform="translate(-208.388 -296.132)"/><path class="a" d="M229.742,485.036H194.516a2.516,2.516,0,1,1,0-5.032h35.226a2.516,2.516,0,0,1,0,5.032Zm0,0" transform="translate(-131.613 -329.035)"/><path class="a" d="M284.581,437.036H274.516a2.516,2.516,0,1,1,0-5.032h10.064a2.516,2.516,0,1,1,0,5.032Zm0,0" transform="translate(-186.452 -296.132)"/><path class="a" d="M204.581,437.036H194.516a2.516,2.516,0,1,1,0-5.032h10.064a2.516,2.516,0,1,1,0,5.032Zm0,0" transform="translate(-131.613 -296.132)"/><path class="a" d="M226.516,415.1A2.514,2.514,0,0,1,224,412.585V402.52a2.516,2.516,0,1,1,5.032,0v10.064A2.514,2.514,0,0,1,226.516,415.1Zm0,0" transform="translate(-153.549 -274.196)"/><path class="a" d="M274.516,415.1A2.514,2.514,0,0,1,272,412.585V402.52a2.516,2.516,0,1,1,5.032,0v10.064A2.514,2.514,0,0,1,274.516,415.1Zm0,0" transform="translate(-186.452 -274.196)"/><path class="a" d="M241.613,405.036h-15.1a2.516,2.516,0,1,1,0-5.032h15.1a2.516,2.516,0,1,1,0,5.032Zm0,0" transform="translate(-153.549 -274.196)"/><path class="a" d="M234.516,372.133A2.514,2.514,0,0,1,232,369.617v-15.1a2.516,2.516,0,0,1,5.032,0v15.1A2.514,2.514,0,0,1,234.516,372.133Zm0,0" transform="translate(-159.033 -241.293)"/><path class="a" d="M266.516,372.133A2.514,2.514,0,0,1,264,369.617v-15.1a2.516,2.516,0,0,1,5.032,0v15.1A2.514,2.514,0,0,1,266.516,372.133Zm0,0" transform="translate(-180.968 -241.293)"/><path class="a" d="M154.386,159.616H28.58a2.517,2.517,0,0,1-2.5-2.24L16.015,66.8A2.515,2.515,0,0,1,18.516,64H164.451a2.515,2.515,0,0,1,2.5,2.793l-10.064,90.58A2.517,2.517,0,0,1,154.386,159.616ZM30.835,154.584h121.3l9.505-85.548H21.327Zm0,0" transform="translate(-10.968 -43.873)"/><path class="a" d="M50.516,25.165A2.514,2.514,0,0,1,48,22.649V2.52a2.516,2.516,0,1,1,5.032,0V22.649A2.514,2.514,0,0,1,50.516,25.165Zm0,0" transform="translate(-32.903 -0.002)"/><path class="a" d="M80.709,5.036H50.516a2.516,2.516,0,1,1,0-5.032H80.709a2.516,2.516,0,1,1,0,5.032Zm0,0" transform="translate(-32.903 -0.002)"/><path class="a" d="M154.062,12.582a2.507,2.507,0,0,1-1.779-.738L144.735,4.3A2.515,2.515,0,0,1,148.293.739l7.548,7.548a2.517,2.517,0,0,1-1.779,4.3Zm0,0" transform="translate(-98.708)"/><path class="a" d="M258.58,29.036H170.516a2.516,2.516,0,0,1,0-5.032H258.58a2.516,2.516,0,0,1,0,5.032Zm0,0" transform="translate(-115.162 -16.454)"/><path class="a" d="M450.516,41.617A2.514,2.514,0,0,1,448,39.1V26.52a2.516,2.516,0,1,1,5.032,0V39.1A2.514,2.514,0,0,1,450.516,41.617Zm0,0" transform="translate(-307.098 -16.454)"/><path class="a" d="M211.935,189.036H146.516a2.516,2.516,0,0,1,0-5.032h65.419a2.516,2.516,0,0,1,0,5.032Zm0,0" transform="translate(-98.71 -126.131)"/><path class="a" d="M211.935,221.036H146.516a2.516,2.516,0,0,1,0-5.032h65.419a2.516,2.516,0,0,1,0,5.032Zm0,0" transform="translate(-98.71 -148.067)"/><path class="a" d="M232.709,253.036H202.516a2.516,2.516,0,0,1,0-5.032h30.193a2.516,2.516,0,0,1,0,5.032Zm0,0" transform="translate(-137.097 -170.003)"/></g></svg>