<svg id="Calque_1" data-name="Calque 1" xmlns="http://www.w3.org/2000/svg" xmlns:xlink="http://www.w3.org/1999/xlink" viewBox="0 0 963.51 963.51"><defs><style>.cls-1{fill:url(#Dégradé_sans_nom_48);}.cls-2{fill:#fff;}</style><linearGradient id="Dégradé_sans_nom_48" x1="227.22" y1="482.36" x2="735.72" y2="482.36" gradientUnits="userSpaceOnUse"><stop offset="0" stop-color="#ee2238"/><stop offset="1" stop-color="#bf1d67"/></linearGradient></defs><path class="cls-1" d="M735.72,482.36q0,9.66-.71,19.13A253.26,253.26,0,0,1,721.28,567C686.4,665.83,592.2,736.62,481.47,736.62c-140.42,0-254.25-113.84-254.25-254.26q0-9.37.67-18.61c0-.37.05-.75.09-1.12a252.8,252.8,0,0,1,12.86-62.57c.3-.87.6-1.74.91-2.6,34.94-98.67,129.08-169.35,239.72-169.35C621.89,228.11,735.72,342,735.72,482.36Z"/><path class="cls-2" d="M735,501.49A253.26,253.26,0,0,1,721.28,567l-316,57.58-6.7,1.22a38.24,38.24,0,0,1-6.83.63,32.56,32.56,0,0,1-6.22-.58h-.08A39.7,39.7,0,0,1,365,615.09a39.3,39.3,0,0,1-8.06-44.46,40.21,40.21,0,0,1,3.24-5.71l0,0,0,0,154.1-154.11-286,51.84-.33.06a252.8,252.8,0,0,1,12.86-62.57c.3-.87.6-1.74.91-2.6l326.8-59.63,9.65-1.75a32.13,32.13,0,0,1,11.12-.05,40,40,0,0,1,32.28,32.06,39.79,39.79,0,0,1-10.54,34.73l0,0-1.51,1.5L461,551.44Z"/></svg>