<?xml version="1.0" encoding="utf-8"?>
<!-- Generator: Adobe Illustrator 23.0.3, SVG Export Plug-In . SVG Version: 6.00 Build 0)  -->
<svg version="1.2" baseProfile="tiny" id="Calque_1"
	 xmlns="http://www.w3.org/2000/svg" xmlns:xlink="http://www.w3.org/1999/xlink" x="0px" y="0px" viewBox="0 0 80 80"
	 xml:space="preserve">
<g>
	<path fill="#FFFFFF" d="M40,0C17.9,0,0,17.9,0,40s17.9,40,40,40s40-17.9,40-40S62.1,0,40,0z"/>
</g>
<path fill="#B31835" d="M64,51.6c-0.5-0.3-1-0.7-1.5-0.8c-0.9-0.3-1.9-0.6-2.8-0.8c-0.4-0.1-0.9-0.1-1.4,0c-0.6,0-0.9-0.2-1.1-0.8
	c0-0.2-0.1-0.4-0.1-0.6c-0.3-1.3-0.6-2.5-1-3.8c0,0,0.1,0,0.1,0c0.2,0.7,0.5,1.4,0.7,2.2c0.1,0,0.1,0,0.2-0.1
	c-0.3-0.9-0.6-1.8-1-2.7c-0.2-0.5-0.7-0.5-1.1-0.3c-0.4,0.1-0.6,0.5-0.5,0.9c0.1,0.9,0.2,1.8,0.3,2.7c0,0.5,0,1,0,1.5
	c-8.4-1.1-16.7-2.2-25-3.4c0.2-0.1,0.5-0.2,0.8-0.3c6-2.4,11.9-4.8,17.9-7.2c2.4-1,4.7-1.9,7.1-3c0.7-0.3,1.5-0.7,2.1-1.2
	c1-0.7,1-1.8-0.2-2.4c-0.4-0.2-0.7-0.4-1.1-0.5c-3-0.9-6-1.2-9.1-1.3c-0.2,0-0.4,0-0.5-0.1c-1.1-0.7-2.1-1.5-3.2-2.2
	c3.5-2,7-4,10.5-6c2.1-1.2,4.2-2.4,6.2-3.6c0.7-0.4,1.1-1.3,0.8-1.9c-0.6-1.2-1.6-2.1-2.9-2.5c-0.5-0.1-1,0.1-1.3,0.6
	c-0.2,0.3-0.5,0.7-0.8,0.9c-0.9,0.7-1.9,1.3-2.8,2c-4.3,2.8-8.8,5-13.3,7.3c-0.2,0.1-0.5,0-0.7-0.1c-1.1-0.7-2.1-1.4-3.2-2.1
	C32.9,20,29.6,18,26,16.5c-2.6-1.1-5.2-0.5-7.7,0.3c-0.3,0.1-0.6,0.6-0.6,0.8c0,0.2,0.4,0.6,0.7,0.7c1.5,0.5,3,0.8,4.6,1.2
	c0.2,0.1,0.5,0,0.7,0.1c0,0,0-0.1,0-0.1c-0.2-0.1-0.4-0.3-0.7-0.5c3.2,0.7,14,5.8,15.5,7.4c-0.5-0.2-1-0.5-1.5-0.7
	c0,0.1-0.1,0.2-0.1,0.3c1.9,1.2,3.9,2.5,5.8,3.7l-0.1,0.2c-0.8-0.1-1.7-0.2-2.5-0.2c-2.4,0-4.7,0-7.1,0c-3,0-6,0-9,0
	c-1.6,0-2.8,0.7-3.7,2.1c-0.3,0.5-0.5,1-0.1,1.5c0.4,0.5,0.9,0.4,1.4,0.3c1.1-0.2,2.1-0.5,3.2-0.6c2.3-0.2,4.5-0.5,6.8-0.6
	c6-0.4,11.9-0.5,17.9-0.2c1.2,0,2.4,0.3,3.6,0.4c0,0.1,0,0.1,0,0.2c-0.2,0.1-0.3,0.2-0.5,0.2c-6.4,2.5-12.8,4.9-19.2,7.4
	c-3.5,1.3-6.9,2.6-10.4,3.8c-1.6,0.6-2.5,1.6-2.8,3.2c-0.1,0.6-0.2,1.3-0.3,1.9c-0.4,3.6,0.1,7.1,0.6,10.6c0.6,3.6,2.9,5,6,5.1
	c0.3,0,0.7-0.2,0.8-0.5c0.1-0.3,0-0.7-0.2-1c-0.1-0.2-0.4-0.4-0.5-0.6c-1.3-2.2-2.5-4.6-2.9-7.2c-0.4-2-0.4-4-0.3-6
	c0-0.6,0.4-0.9,1-0.9c0.4,0,0.9,0.1,1.3,0.3c3.2,1,6.2,2.3,9.1,3.9c4.6,2.5,8.9,5.4,13.2,8.3c0.3,0.2,0.6,0.4,0.9,0.6
	c0.1,0.1,0.1,0.1,0.2,0.2c0.1,0.1,0.2,0.3,0.4,0.4c1.2,1,2.5,2,3.8,2.9c0.6,0.4,1.3,0.8,2,1.1c2,0.7,3.6-0.1,4.2-2
	c0.2-0.6,0.3-1.2,0.2-1.8c-0.2-1.9-0.4-3.8-0.6-5.8c-0.1-1-0.3-2-0.5-3c0.6,0.1,1.2,0,1.6,0.2c1,0.4,1.8,0.1,2.7-0.3
	c0.4-0.2,0.7-0.3,1.1-0.5C64,53,64,52.8,64,52.7C64.3,52.3,64.5,51.9,64,51.6z M55,57.6c-0.2,1.4-0.5,2.9-0.7,4.3
	c-0.1,0.4-0.3,0.4-0.6,0.1c-1-0.8-1.9-1.7-2.9-2.5c-0.7-0.6-1.4-1.2-2.2-1.7c-2.9-1.9-5.9-3.9-8.8-5.8c-0.3-0.2-0.6-0.4-0.7,0.3
	c-0.8-0.5-1.5-1-2.3-1.4c0.2-0.1,0.3-0.1,0.6-0.3c-1.4-0.8-2.6-1.5-3.9-2.3c0,0,0-0.1,0-0.1c0.6,0.1,1.2,0.1,1.8,0.2
	c2.6,0.4,5.3,0.8,7.9,1.1c0.6,0.1,1.2,0,1.7,0.1c0.4,0.1,0.7,0.2,1.1,0.3c0.4,0.1,0.8,0.3,1.2,0.3c1.5,0.3,3,0.6,4.5,0.9
	c1,0.2,1.9,0.6,2.8,0.8c0.6,0.2,0.5,0.7,0.5,1.1c0.1,0.6-0.1,1.2-0.1,1.8C54.9,55.9,55.1,56.8,55,57.6z"/>
</svg>
