<svg xmlns="http://www.w3.org/2000/svg" width="92" height="89.723" viewBox="0 0 92 89.723"><defs><style>.a{fill:#000;}</style></defs><path class="a" d="M48,2A46,46,0,0,0,33.459,91.649c2.3.414,3.137-1,3.137-2.226,0-1.086-.041-3.984-.064-7.815-12.8,2.769-15.5-6.164-15.5-6.164-2.093-5.322-5.106-6.739-5.106-6.739-4.181-2.852.317-2.8.317-2.8,4.618.327,7.047,4.738,7.047,4.738,4.1,7.033,10.769,5.009,13.386,3.832a9.83,9.83,0,0,1,2.921-6.15C29.388,67.173,18.647,63.217,18.647,45.59a17.757,17.757,0,0,1,4.738-12.337c-.474-1.168-2.056-5.842.446-12.172,0,0,3.864-1.237,12.65,4.715a43.63,43.63,0,0,1,23.037,0c8.781-5.952,12.641-4.715,12.641-4.715,2.512,6.33.929,11.012.46,12.172a17.752,17.752,0,0,1,4.72,12.337c0,17.669-10.75,21.56-21,22.7,1.651,1.412,3.123,4.218,3.123,8.519,0,6.141-.055,11.109-.055,12.609,0,1.237.828,2.663,3.165,2.213A46,46,0,0,0,48,2Z" transform="translate(-2 -2)"/></svg>
