<?xml version="1.0" encoding="iso-8859-1"?>
<!-- Generator: Adobe Illustrator 19.0.0, SVG Export Plug-In . SVG Version: 6.00 Build 0)  -->
<svg version="1.1" id="Layer_1" xmlns="http://www.w3.org/2000/svg" xmlns:xlink="http://www.w3.org/1999/xlink" x="0px" y="0px"
	 viewBox="0 0 512.004 512.004" style="enable-background:new 0 0 512.004 512.004;" xml:space="preserve">
<g>
	<g>
		<path d="M480.758,31.243C459.945,10.414,432.632,0,405.335,0s-54.594,10.414-75.422,31.243l-90.508,90.508
			c-21.211,21.203-31.602,49.117-31.219,76.907c-3.453,2.883-6.641,6.07-9.523,9.523c-0.492-0.008-0.992-0.023-1.484-0.023
			c-27.297,0-54.594,10.414-75.422,31.242l-90.516,90.508c-41.656,41.656-41.648,109.188,0.008,150.846
			c20.82,20.844,48.125,31.25,75.422,31.25s54.595-10.406,75.423-31.25l90.507-90.501c21.219-21.204,31.595-49.126,31.22-76.907
			c3.453-2.875,6.641-6.062,9.531-9.531c0.484,0.016,0.984,0.031,1.469,0.031c27.312,0,54.594-10.406,75.438-31.25l90.501-90.501
			C522.414,140.439,522.414,72.899,480.758,31.243z M195.663,301.252l0.539-0.531c4.281,5.719,9.367,10.797,15.086,15.094
			l-0.539,0.531c-2.719,2.719-5.891,3.125-7.547,3.125c-1.648,0-4.82-0.406-7.539-3.125s-3.125-5.906-3.125-7.547
			S192.944,303.971,195.663,301.252z M180.577,331.424c6.25,6.25,14.438,9.375,22.625,9.375c8.195,0,16.383-3.125,22.633-9.375
			l5.078-5.078c2.188,0.781,4.422,1.469,6.695,2.031c-2.008,6.031-5.383,11.719-10.156,16.516l-0.125,0.125l-90.485,90.485
			c-8.062,8.062-18.773,12.5-30.172,12.5c-11.398,0-22.109-4.438-30.172-12.5c-8.055-8.062-12.5-18.781-12.5-30.156
			c0-11.391,4.43-22.095,12.469-30.157l0.047-0.031l90.493-90.5c4.749-4.751,10.421-8.219,16.609-10.282
			c0.578,2.281,1.266,4.516,2.047,6.719l-5.086,5.078C168.077,298.658,168.085,318.94,180.577,331.424z M257.522,375.158
			l-90.515,90.517c-16.117,16.11-37.547,24.985-60.337,24.985c-22.797,0-44.227-8.875-60.344-24.985
			c-16.117-16.109-24.992-37.547-24.992-60.328c0-22.813,8.875-44.235,24.992-60.345l90.516-90.516
			c13.422-13.43,30.54-21.828,49.063-24.258c-2.609,7.086-4.164,14.672-4.5,22.578c-10.797,2.727-21.031,8.312-29.484,16.766
			l-90.485,90.492c-0.008,0-0.016,0-0.023,0.016c-24.992,24.985-24.992,65.517,0,90.517c12.5,12.5,28.875,18.751,45.258,18.751
			c16.375,0,32.758-6.251,45.251-18.751l90.492-90.501c0.008,0,0.016,0,0.023-0.016c8.453-8.453,14.031-18.672,16.757-29.484
			c7.906-0.344,15.5-1.891,22.578-4.5C279.35,344.627,270.943,361.736,257.522,375.158z M255.998,309.346
			c-14.242,0-27.633-5.562-37.711-15.625c-10.07-10.078-15.617-23.477-15.617-37.719c0-14.25,5.547-27.641,15.617-37.711
			c10.079-10.078,23.469-15.625,37.719-15.625c14.242,0,27.625,5.547,37.718,15.625c10.063,10.07,15.61,23.469,15.61,37.711
			C309.334,285.408,285.411,309.346,255.998,309.346z M331.429,180.579c-6.25-6.25-14.438-9.375-22.625-9.375
			c-8.203,0-16.392,3.125-22.642,9.375l-5.062,5.078c-2.188-0.781-4.438-1.461-6.703-2.039c2-6.016,5.359-11.68,10.125-16.477
			l0.156-0.148l90.485-90.492c8.062-8.062,18.781-12.5,30.172-12.5s22.109,4.438,30.172,12.5
			c16.594,16.602,16.625,43.586,0.094,60.234l-0.344,0.352l-0.125,0.125l-90.125,90.134c-4.75,4.75-10.438,8.226-16.625,10.289
			c-0.562-2.289-1.25-4.523-2.031-6.719l5.078-5.086C343.913,213.338,343.913,193.072,331.429,180.579z M316.351,210.744
			l-0.547,0.539c-4.281-5.719-9.359-10.797-15.078-15.086l0.531-0.531c2.719-2.719,5.891-3.125,7.547-3.125
			c1.641,0,4.828,0.406,7.547,3.125s3.125,5.891,3.125,7.539S319.069,208.025,316.351,210.744z M465.679,167.009l-90.516,90.509
			c-13.422,13.43-30.531,21.828-49.062,24.266c2.609-7.094,4.156-14.68,4.5-22.586c10.797-2.734,21.031-8.312,29.484-16.766
			l90.484-90.493c0-0.008,0.016-0.008,0.031-0.016c24.985-24.992,24.985-65.516,0-90.508c-12.5-12.5-28.875-18.75-45.266-18.75
			c-16.375,0-32.766,6.25-45.25,18.75l-90.493,90.492c-0.008,0-0.016,0.008-0.023,0.016c-8.453,8.453-14.031,18.68-16.757,29.484
			c-7.906,0.336-15.5,1.891-22.578,4.492c2.43-18.516,10.828-35.633,24.25-49.062l90.524-90.508
			c16.109-16.117,37.531-24.992,60.328-24.992s44.234,8.875,60.344,24.992s24.985,37.547,24.985,60.336
			C490.664,129.462,481.789,150.892,465.679,167.009z"/>
	</g>
</g>
<g>
	<g>
		<path d="M277.521,245.346v-0.008h-10.852v-10.672c0-5.891-4.781-10.664-10.671-10.664c-5.891,0-10.664,4.773-10.664,10.664v10.672
			H234.67c-5.891,0-10.672,4.773-10.672,10.664c0,5.891,4.782,10.664,10.672,10.664h10.664v10.68
			c0,5.875,4.773,10.656,10.664,10.656c5.898,0,10.671-4.781,10.671-10.656v-10.68h10.852v-0.008
			c5.797-0.102,10.484-4.828,10.484-10.656C288.005,250.174,283.317,245.447,277.521,245.346z"/>
	</g>
</g>
<g>
</g>
<g>
</g>
<g>
</g>
<g>
</g>
<g>
</g>
<g>
</g>
<g>
</g>
<g>
</g>
<g>
</g>
<g>
</g>
<g>
</g>
<g>
</g>
<g>
</g>
<g>
</g>
<g>
</g>
</svg>
